<?xml version="1.0" encoding="UTF-8"?>
<svg width="60px" height="60px" viewBox="0 0 60 60" version="1.1" xmlns="http://www.w3.org/2000/svg" xmlns:xlink="http://www.w3.org/1999/xlink">
    <!-- Generator: Sketch 42 (36781) - http://www.bohemiancoding.com/sketch -->
    <title>coffee</title>
    <desc>Created with Sketch.</desc>
    <defs></defs>
    <g id="Page-1" stroke="none" stroke-width="1" fill="none" fill-rule="evenodd">
        <g id="iPhone-7" transform="translate(-25.000000, -13.000000)">
            <g id="cofee" transform="translate(25.000000, 13.000000)">
                <g id="Group">
                    <g id="coffee">
                        <path d="M44.2522826,47.8149664 L31.8766443,47.8149664 C30.8453411,47.8149664 30.0015475,48.5709664 30.0015475,49.4949664 C30.0015475,50.4189663 30.8453411,51.1749663 31.8766443,51.1749663 L44.2522826,51.1749663 C45.2835858,51.1749663 46.1273793,50.4189663 46.1273793,49.4949664 C46.1273793,48.5709664 45.2835858,47.8149664 44.2522826,47.8149664 Z" id="Shape" fill="#000000" fill-rule="nonzero"></path>
                        <path d="M57.19045,19.9697801 C55.4091081,18.1884382 52.5027082,17.2508898 49.6900631,18.0009285 L49.6900631,16.4070963 C49.6900631,15.3757931 49.2212889,15.0007738 48.1899857,15.0007738 L16.8758705,15.0007738 C15.8445673,15.0007738 15.0007738,15.3757931 15.0007738,16.4070963 L15.0007738,29.0639992 C15.0007738,37.8769538 22.1261413,45.0023213 30.9390959,45.0023213 L34.1267603,45.0023213 C40.6895988,45.0023213 46.4086438,40.9708634 48.8462696,35.2518184 C49.4087986,35.439328 50.0650825,35.5330829 50.7213663,35.5330829 C52.8777275,35.5330829 55.3153533,34.5955345 57.3779597,32.5329281 C59.0655467,30.8453411 59.9093402,28.595225 59.9093402,26.2513541 C59.9093402,23.9074832 58.878037,21.6573671 57.19045,19.9697801 Z M34.2496115,42.1896762 L30.8421081,42.1896762 C23.6262187,42.1896762 17.8134188,36.2987474 17.8134188,28.9858701 L17.8134188,17.8134188 L46.877418,17.8134188 L46.877418,20.5557478 L46.877418,20.5557478 L46.877418,28.9858701 C46.877418,36.2987474 41.3652803,42.1896762 34.2496115,42.1896762 Z M54.7528243,29.9077927 C52.8777275,31.7828894 50.5338566,31.9703991 49.6900631,31.6891346 C49.8775728,30.8453411 49.7838179,30.0015475 49.7838179,29.0639992 L49.7838179,22.1261413 C51.6589147,20.7198188 53.8152759,21.751122 54.6590694,22.5949155 C55.5966178,23.5324638 56.2529016,24.8450316 56.2529016,26.2513541 C56.2529016,27.6576766 55.6903726,28.8764895 54.7528243,29.9077927 Z" id="Shape" fill="#000000" fill-rule="nonzero"></path>
                        <path d="M22.5011607,46.5961535 C22.1261413,46.5023987 21.8448768,46.5023987 21.4698575,46.5023987 C21.9386316,45.0960761 21.9386316,43.6897536 21.2823478,42.5646956 C20.7198188,41.720902 19.8760252,41.158373 18.844722,40.8771085 C17.157135,40.595844 15.1882834,41.158373 13.5006964,42.4709407 C12.9381674,42.8459601 12.563148,43.3147343 12.0943739,43.7835084 C8.53169008,41.3458827 4.21896762,41.0646182 1.78134188,43.3147343 C0.562529016,44.3460375 0,45.75236 0,47.439947 C0,49.8775728 1.3125677,52.5027082 3.46892893,54.4715597 C5.53153533,56.3466565 8.25042557,57.3779597 10.6880513,57.3779597 C12.4693932,57.3779597 14.2507351,56.8154306 15.4695479,55.7841275 C16.594606,56.627921 18.0946834,57.2842048 19.6885156,57.5654693 C20.3447994,57.6592242 21.0010833,57.752979 21.6573671,57.752979 C25.3138057,57.752979 28.3139605,56.065392 28.9702443,53.5340114 C29.2515088,52.4089534 29.0639992,51.1901405 28.4077153,50.0650825 C27.1889025,48.2837406 25.0325412,46.9711729 22.5011607,46.5961535 Z M26.7201283,51.0026308 C26.8138831,51.0963856 26.8138831,51.1901405 26.9076379,51.2838953 C25.8763348,51.7526695 24.1887477,52.4089534 22.9699348,52.2214437 C21.5636123,51.9401792 20.8135736,51.5651598 20.0635349,51.0026308 C19.2197414,50.4401018 18.1884382,49.8775728 16.3133415,49.4087986 C17.3446447,48.6587599 18.844722,48.1899857 20.5323091,48.1899857 C21.0948381,48.1899857 21.6573671,48.1899857 22.1261413,48.2837406 C24.1887477,48.7525147 25.9700896,49.6900631 26.7201283,51.0026308 Z M19.8760252,44.3460375 C19.9697801,45.0023213 19.7822704,45.75236 19.4072511,46.5023987 C19.0322317,46.5023987 18.6572124,46.5961535 18.282193,46.6899084 C18.9384769,46.0336245 19.5010059,45.0960761 19.8760252,44.3460375 Z M14.5319996,43.9710181 C15.8445673,43.0334697 17.2508898,42.5646956 18.3759479,42.7522052 L18.4697027,42.7522052 C18.1884382,43.5959988 17.719664,44.7210568 16.9696253,45.2835858 C16.032077,45.9398697 15.4695479,46.1273793 14.7195093,46.314889 L14.7195093,46.314889 C14.3444899,45.8461148 13.9694706,45.3773406 13.5006964,44.9085665 C13.7819609,44.627302 14.1569802,44.2522826 14.5319996,43.9710181 Z M12.1881287,46.314889 C13.0319222,47.0649277 13.6882061,48.0024761 14.1569802,48.9400244 C13.6882061,49.4087986 13.4069416,50.0650825 13.2194319,50.6276115 C12.9381674,51.7526695 13.125677,52.9714824 13.7819609,54.0965404 C13.8757157,54.1902952 13.9694706,54.3778049 14.0632254,54.4715597 C13.8757157,54.6590694 13.6882061,54.7528243 13.4069416,54.8465791 C11.3443352,52.8777275 10.9693158,51.7526695 10.5005416,50.5338566 C10.1255223,49.4087986 9.65674811,48.2837406 8.15667074,46.7836632 C6.7503482,45.3773406 4.40647729,44.9085665 2.90639992,44.7210568 C2.90639992,44.7210568 2.90639992,44.7210568 2.90639992,44.627302 C4.96900631,42.7522052 9.18797393,43.5022439 12.1881287,46.314889 Z M4.6877418,53.0652372 C2.90639992,51.3776502 1.87509672,49.2212889 1.87509672,47.3461922 C1.87509672,47.0649277 1.87509672,46.6899084 1.96885156,46.4086438 C3.28141926,46.5023987 5.719045,46.877418 6.84410303,48.0024761 C8.0629159,49.2212889 8.43793524,50.0650825 8.81295459,51.0963856 C9.18797393,52.2214437 9.75050295,53.5340114 11.43809,55.3153533 C9.28172877,55.5966178 6.65659336,54.9403339 4.6877418,53.0652372 Z M21.6573671,55.7841275 C21.0948381,55.7841275 20.5323091,55.7841275 20.0635349,55.6903726 C18.0009285,55.3153533 16.3133415,54.3778049 15.4695479,53.158992 C15.0945286,52.5027082 14.9070189,51.8464243 15.0945286,51.1901405 C17.2508898,51.5651598 18.1884382,52.1276888 19.0322317,52.6902179 C19.8760252,53.2527469 20.8135736,53.8152759 22.5949155,54.0965404 C22.87618,54.1902952 23.1574445,54.1902952 23.5324638,54.1902952 C24.7512767,54.1902952 26.0638444,53.8152759 27.0013928,53.3465017 C26.3451089,54.7528243 24.1887477,55.7841275 21.6573671,55.7841275 Z" id="Shape" fill="#000000" fill-rule="nonzero"></path>
                        <path d="M20.1554924,49.5925867 C19.8195676,49.5086055 19.5676239,49.5086055 19.231699,49.5086055 C19.6516051,48.2488872 19.6516051,46.989169 19.0637366,45.9813943 C18.5598493,45.2255634 17.8040183,44.7216761 16.8802249,44.4697324 C15.368563,44.2177888 13.6049574,44.7216761 12.0932955,45.8974131 C11.5894081,46.233338 11.2534833,46.6532441 10.8335772,47.0731502 C7.64229088,44.8896385 3.77915483,44.6376949 1.59564315,46.6532441 C0.503887311,47.5770375 0,48.8367558 0,50.3484177 C0,52.5319294 1.17573706,54.8834035 3.10730508,56.6470091 C4.95489189,58.3266335 7.39034723,59.2504269 9.57385891,59.2504269 C11.1695021,59.2504269 12.7651452,58.7465396 13.856901,57.8227462 C14.8646757,58.5785771 16.2083752,59.1664456 17.6360559,59.4183893 C18.2239244,59.5023705 18.8117929,59.5863517 19.3996615,59.5863517 C22.674929,59.5863517 25.362328,58.0746898 25.9501965,55.8071969 C26.2021402,54.7994223 26.0341777,53.7076664 25.4463092,52.6998918 C24.3545534,51.1042487 22.4229853,49.9285116 20.1554924,49.5925867 Z" id="Path" fill="#E1C980" style="mix-blend-mode: multiply;"></path>
                        <ellipse id="Oval" fill="#65ADA1" fill-rule="nonzero" cx="27.1889025" cy="11.2505803" rx="1.87509672" ry="1.87509672"></ellipse>
                        <ellipse id="Oval" fill="#E1C980" fill-rule="nonzero" cx="34.6892893" cy="7.50038688" rx="1.87509672" ry="1.87509672"></ellipse>
                        <ellipse id="Oval" fill="#BF525F" fill-rule="nonzero" cx="30.0015475" cy="1.87509672" rx="1.87509672" ry="1.87509672"></ellipse>
                        <ellipse id="Oval" fill="#F4D1D2" fill-rule="nonzero" cx="25.3138057" cy="5.62529016" rx="0.937548361" ry="0.937548361"></ellipse>
                        <ellipse id="Oval" fill="#F4D1D2" fill-rule="nonzero" cx="39.3770311" cy="12.1881287" rx="0.937548361" ry="0.937548361"></ellipse>
                    </g>
                </g>
            </g>
        </g>
    </g>
</svg>