<?xml version="1.0" encoding="UTF-8"?>
<svg width="18px" height="30px" viewBox="0 0 18 30" version="1.1" xmlns="http://www.w3.org/2000/svg" xmlns:xlink="http://www.w3.org/1999/xlink">
    <!-- Generator: Sketch 42 (36781) - http://www.bohemiancoding.com/sketch -->
    <title>git</title>
    <desc>Created with Sketch.</desc>
    <defs></defs>
    <g id="Page-1" stroke="none" stroke-width="1" fill="none" fill-rule="evenodd">
        <g id="iPhone-7" transform="translate(-337.000000, -251.000000)" fill-rule="nonzero" fill="#9C9C9C">
            <g id="noun_368567_cc" transform="translate(337.000000, 251.000000)">
                <g id="Group">
                    <path d="M17.5588235,7.80882353 C17.5588235,5.86764706 15.9705882,4.32352941 14.0735294,4.32352941 C12.1764706,4.32352941 10.5882353,5.91176471 10.5882353,7.80882353 C10.5882353,9.17647059 11.3823529,10.3235294 12.4852941,10.9411765 C11.9558824,13.4558824 9.88235294,14.6029412 6.97058824,15.9264706 C6.26470588,16.2352941 5.55882353,16.5882353 4.89705882,16.9411765 L4.89705882,6.66176471 C6.08823529,6.13235294 6.97058824,4.89705882 6.97058824,3.48529412 C6.97058824,1.54411765 5.38235294,0 3.48529412,0 C1.54411765,0 3.9184342e-16,1.58823529 3.9184342e-16,3.48529412 C3.9184342e-16,4.89705882 0.838235294,6.13235294 2.07352941,6.66176471 L2.07352941,22.2794118 L2.07352941,19.6323529 L2.07352941,23.0294118 C0.882352941,23.5588235 0,24.7941176 0,26.2058824 C0,28.1470588 1.58823529,29.6911765 3.48529412,29.6911765 C5.42647059,29.6911765 6.97058824,28.1029412 6.97058824,26.2058824 C6.97058824,24.7941176 6.13235294,23.5588235 4.89705882,23.0294118 L4.89705882,20.9558824 C4.89705882,20.0735294 6.13235294,19.4558824 8.16176471,18.5294118 C10.9852941,17.25 14.6911765,15.5294118 15.3970588,11.0735294 C16.6764706,10.5441176 17.5588235,9.30882353 17.5588235,7.80882353 Z M3.48529412,1.76470588 C4.45588235,1.76470588 5.20588235,2.55882353 5.20588235,3.48529412 C5.20588235,4.45588235 4.41176471,5.20588235 3.48529412,5.20588235 C2.51470588,5.20588235 1.76470588,4.41176471 1.76470588,3.48529412 C1.76470588,2.55882353 2.51470588,1.76470588 3.48529412,1.76470588 Z M3.48529412,27.9264706 C2.51470588,27.9264706 1.76470588,27.1323529 1.76470588,26.2058824 C1.76470588,25.2352941 2.55882353,24.4852941 3.48529412,24.4852941 C4.45588235,24.4852941 5.20588235,25.2794118 5.20588235,26.2058824 C5.20588235,27.1764706 4.41176471,27.9264706 3.48529412,27.9264706 Z M14.0735294,9.57352941 L14.0735294,9.57352941 C13.1029412,9.57352941 12.3529412,8.77941176 12.3529412,7.85294118 C12.3529412,6.88235294 13.1470588,6.13235294 14.0735294,6.13235294 C15,6.13235294 15.7941176,6.92647059 15.7941176,7.85294118 C15.7941176,8.77941176 15.0441176,9.57352941 14.0735294,9.57352941 Z" id="git"></path>
                </g>
            </g>
        </g>
    </g>
</svg>