<?xml version="1.0" encoding="UTF-8"?>
<svg width="197px" height="158px" viewBox="0 0 197 158" version="1.1" xmlns="http://www.w3.org/2000/svg" xmlns:xlink="http://www.w3.org/1999/xlink">
    <!-- Generator: Sketch 42 (36781) - http://www.bohemiancoding.com/sketch -->
    <title>latte</title>
    <desc>Created with Sketch.</desc>
    <defs></defs>
    <g id="Page-1" stroke="none" stroke-width="1" fill="none" fill-rule="evenodd">
        <g id="iPhone-7" transform="translate(0.000000, -270.000000)" fill-rule="nonzero" fill="#CBCAC3">
            <g id="latte" transform="translate(-3.000000, 270.000000)">
                <g id="Group">
                    <path d="M45.7142857,30.8823529 C47.1428571,30.8823529 48.0952381,29.9335863 48.0952381,28.5104364 C48.0952381,27.0872865 47.1428571,26.1385199 45.7142857,26.1385199 C43.5714286,26.1385199 41.6666667,24.2409867 41.6666667,22.1062619 C41.6666667,19.971537 43.5714286,18.0740038 45.7142857,18.0740038 C50.4761905,18.0740038 54.5238095,14.0417457 54.5238095,9.29791271 C54.5238095,4.5540797 50.4761905,0.521821632 45.7142857,0.521821632 C44.2857143,0.521821632 43.3333333,1.47058824 43.3333333,2.89373814 C43.3333333,4.31688805 44.2857143,5.26565465 45.7142857,5.26565465 C47.8571429,5.26565465 49.7619048,7.16318786 49.7619048,9.29791271 C49.7619048,11.4326376 47.8571429,13.3301708 45.7142857,13.3301708 C40.952381,13.3301708 36.9047619,17.3624288 36.9047619,22.1062619 C36.9047619,26.8500949 40.7142857,30.8823529 45.7142857,30.8823529 Z" id="Shape"></path>
                    <path d="M62.3809524,13.3301708 C57.6190476,13.3301708 53.5714286,17.3624288 53.5714286,22.1062619 C53.5714286,26.8500949 57.6190476,30.8823529 62.3809524,30.8823529 C63.8095238,30.8823529 64.7619048,29.9335863 64.7619048,28.5104364 C64.7619048,27.0872865 63.8095238,26.1385199 62.3809524,26.1385199 C60.2380952,26.1385199 58.3333333,24.2409867 58.3333333,22.1062619 C58.3333333,19.971537 60.2380952,18.0740038 62.3809524,18.0740038 C67.1428571,18.0740038 71.1904762,14.0417457 71.1904762,9.29791271 C71.1904762,4.5540797 67.1428571,0.521821632 62.3809524,0.521821632 C60.952381,0.521821632 60,1.47058824 60,2.89373814 C60,4.31688805 60.952381,5.26565465 62.3809524,5.26565465 C64.5238095,5.26565465 66.4285714,7.16318786 66.4285714,9.29791271 C66.4285714,11.4326376 64.7619048,13.3301708 62.3809524,13.3301708 Z" id="Shape"></path>
                    <path d="M140.47619,30.8823529 C141.904762,30.8823529 142.857143,29.9335863 142.857143,28.5104364 C142.857143,27.0872865 141.904762,26.1385199 140.47619,26.1385199 C138.333333,26.1385199 136.428571,24.2409867 136.428571,22.1062619 C136.428571,19.971537 138.333333,18.0740038 140.47619,18.0740038 C145.238095,18.0740038 149.285714,14.0417457 149.285714,9.29791271 C149.285714,4.5540797 145.238095,0.284629981 140.47619,0.284629981 C139.047619,0.284629981 138.095238,1.23339658 138.095238,2.65654649 C138.095238,4.07969639 139.047619,5.028463 140.47619,5.028463 C142.619048,5.028463 144.52381,6.9259962 144.52381,9.06072106 C144.52381,11.1954459 142.619048,13.0929791 140.47619,13.0929791 C135.714286,13.0929791 131.666667,17.1252372 131.666667,21.8690702 C131.666667,26.6129032 135.47619,30.8823529 140.47619,30.8823529 Z" id="Shape"></path>
                    <path d="M157.380952,13.3301708 C152.619048,13.3301708 148.571429,17.3624288 148.571429,22.1062619 C148.571429,26.8500949 152.619048,30.8823529 157.380952,30.8823529 C158.809524,30.8823529 159.761905,29.9335863 159.761905,28.5104364 C159.761905,27.0872865 158.809524,26.1385199 157.380952,26.1385199 C155.238095,26.1385199 153.333333,24.2409867 153.333333,22.1062619 C153.333333,19.971537 155.238095,18.0740038 157.380952,18.0740038 C162.142857,18.0740038 166.190476,14.0417457 166.190476,9.29791271 C166.190476,4.5540797 162.142857,0.521821632 157.380952,0.521821632 C155.952381,0.521821632 155,1.47058824 155,2.89373814 C155,4.31688805 155.952381,5.26565465 157.380952,5.26565465 C159.52381,5.26565465 161.428571,7.16318786 161.428571,9.29791271 C161.428571,11.4326376 159.52381,13.3301708 157.380952,13.3301708 Z" id="Shape"></path>
                    <path d="M197.142857,104.411765 L183.571429,104.411765 L185.714286,60.5313093 L190.47619,60.5313093 C191.666667,60.5313093 192.857143,59.5825427 192.857143,58.3965844 C192.857143,56.9734345 192.857143,55.5502846 192.380952,54.1271347 C191.428571,50.8064516 188.809524,48.4345351 185.47619,47.4857685 C184.52381,38.4724858 177.857143,36.1005693 177.380952,35.8633776 L117.857143,35.8633776 C117.380952,36.1005693 112.857143,38.7096774 112.142857,47.0113852 C110,47.2485769 108.095238,48.1973435 107.142857,50.0948767 C105.952381,51.7552182 104.761905,54.3643264 105,58.1593928 C105,59.345351 106.190476,60.2941176 107.380952,60.2941176 L112.142857,60.2941176 L114.285714,104.411765 L88.8095238,104.411765 L91.1904762,60.5313093 L95.7142857,60.5313093 C96.9047619,60.5313093 98.0952381,59.5825427 98.0952381,58.3965844 C98.0952381,56.9734345 98.0952381,55.5502846 97.6190476,54.1271347 C96.6666667,50.8064516 94.047619,48.4345351 90.7142857,47.4857685 C89.7619048,38.4724858 83.0952381,36.1005693 82.6190476,35.8633776 L23.0952381,35.8633776 C22.6190476,36.1005693 18.0952381,38.7096774 17.3809524,47.0113852 C15.2380952,47.2485769 13.3333333,48.1973435 12.3809524,50.0948767 C11.1904762,51.7552182 10,54.3643264 10.2380952,58.1593928 C10.2380952,59.345351 11.4285714,60.2941176 12.6190476,60.2941176 L17.6190476,60.2941176 L19.7619048,104.174573 L2.85714286,104.174573 C1.42857143,104.174573 0.476190476,105.12334 0.476190476,106.54649 L0.476190476,121.01518 C0.476190476,122.43833 1.42857143,123.387097 2.85714286,123.387097 L20.2380952,123.387097 L21.9047619,152.56167 C22.1428571,155.645161 24.5238095,157.779886 27.6190476,157.779886 L80.4761905,157.779886 C83.5714286,157.779886 85.952381,155.40797 86.1904762,152.56167 L87.8571429,123.624288 L115.47619,123.624288 L116.904762,152.56167 C117.142857,155.645161 119.52381,157.779886 122.619048,157.779886 L175.47619,157.779886 C178.571429,157.779886 180.952381,155.40797 181.190476,152.56167 L182.857143,123.624288 L197.380952,123.624288 C198.809524,123.624288 199.761905,122.675522 199.761905,121.252372 L199.761905,106.783681 C199.52381,105.597723 198.333333,104.411765 197.142857,104.411765 Z M119.761905,40.6072106 L176.190476,40.6072106 C177.142857,41.0815939 179.761905,42.7419355 180.714286,47.2485769 L116.904762,47.2485769 C117.380952,42.9791271 119.047619,41.3187856 119.761905,40.6072106 Z M110.952381,52.9411765 C111.428571,52.2296015 112.142857,51.9924099 112.857143,51.9924099 L183.333333,51.9924099 C185.47619,51.9924099 187.380952,53.4155598 187.857143,55.313093 L187.857143,55.7874763 L109.761905,55.7874763 C110,54.8387097 110.47619,53.8899431 110.952381,52.9411765 Z M116.666667,60.5313093 L180.952381,60.5313093 L178.809524,104.411765 L119.047619,104.411765 L116.666667,60.5313093 Z M25,40.6072106 L81.4285714,40.6072106 C82.3809524,41.0815939 85,42.7419355 85.952381,47.2485769 L22.1428571,47.2485769 C22.6190476,42.9791271 24.2857143,41.3187856 25,40.6072106 Z M16.1904762,52.9411765 C16.6666667,52.2296015 17.3809524,51.9924099 18.0952381,51.9924099 L88.3333333,51.9924099 C90.4761905,51.9924099 92.3809524,53.4155598 92.8571429,55.313093 L92.8571429,55.7874763 L15,55.7874763 C15.2380952,54.8387097 15.4761905,53.8899431 16.1904762,52.9411765 Z M22.1428571,60.5313093 L86.4285714,60.5313093 L84.047619,104.411765 L24.047619,104.411765 L22.1428571,60.5313093 Z M81.4285714,152.324478 C81.4285714,152.798861 80.952381,153.036053 80.4761905,153.036053 L27.6190476,153.036053 C27.1428571,153.036053 26.6666667,152.56167 26.6666667,152.324478 L25.2380952,123.624288 L82.8571429,123.624288 L81.4285714,152.324478 Z M176.190476,152.324478 C176.190476,152.798861 175.714286,153.036053 175.238095,153.036053 L122.380952,153.036053 C121.904762,153.036053 121.428571,152.56167 121.428571,152.324478 L120,123.624288 L177.619048,123.624288 L176.190476,152.324478 Z M194.761905,118.880455 L5.23809524,118.880455 L5.23809524,109.155598 L194.52381,109.155598 L194.52381,118.880455 L194.761905,118.880455 Z" id="Shape"></path>
                </g>
            </g>
        </g>
    </g>
</svg>