<?xml version="1.0" encoding="UTF-8"?>
<svg width="27px" height="41px" viewBox="0 0 27 41" version="1.1" xmlns="http://www.w3.org/2000/svg" xmlns:xlink="http://www.w3.org/1999/xlink">
    <!-- Generator: Sketch 42 (36781) - http://www.bohemiancoding.com/sketch -->
    <title>mug</title>
    <desc>Created with Sketch.</desc>
    <defs></defs>
    <g id="Page-1" stroke="none" stroke-width="1" fill="none" fill-rule="evenodd">
        <g id="iPhone-7" transform="translate(-113.000000, -345.000000)" stroke="#717070" stroke-width="2">
            <g id="Group-3" transform="translate(85.000000, 318.000000)">
                <g id="mug" transform="translate(29.000000, 28.000000)">
                    <path d="M11.2333896,0.290195899 C11.2333896,0.290195899 15.1506742,2.66980227 11.2333896,6.15215306 C11.2333896,6.15215306 7.83456919,8.12548518 11.2333896,11.4917576 C11.2333896,11.4917576 13.5952818,13.7552856 11.2333896,16.0768528 C11.2333896,16.0768528 9.3899616,17.5278323 11.2333896,19.6172428" id="Shape"></path>
                    <path d="M5.81831977,11.4337184 C5.81831977,11.4337184 8.18021195,13.6972464 5.81831977,16.0188136 C5.81831977,16.0188136 3.97489172,17.4697931 5.81831977,19.5592036" id="Shape"></path>
                    <g id="Group" transform="translate(0.000000, 19.152929)">
                        <path d="M14.7474244,14.0454815 L4.72378436,14.0454815 C2.99557057,14.0454815 1.55539241,12.594502 1.55539241,10.8533266 L1.55539241,0.406274259 L17.9734234,0.406274259 L17.9734234,10.7952875 C17.9734234,12.594502 16.5332453,14.0454815 14.7474244,14.0454815 Z" id="Shape"></path>
                        <path d="M22.1787437,8.53175944 L17.9734234,8.53175944 L17.9734234,2.43764555 L22.1787437,2.43764555 C23.2732791,2.43764555 24.1949931,3.36627243 24.1949931,4.46901685 L24.1949931,6.50038814 C24.1949931,7.60313256 23.2732791,8.53175944 22.1787437,8.53175944 Z" id="Shape"></path>
                        <path d="M22.2363508,19.4431252 L0.63367839,19.4431252 C0.288035632,19.4431252 0,19.1529293 0,18.8046943 L0,18.1662633 C0,17.8180282 0.288035632,17.5278323 0.63367839,17.5278323 L22.2363508,17.5278323 C22.5819935,17.5278323 22.8700292,17.8180282 22.8700292,18.1662633 L22.8700292,18.8046943 C22.8700292,19.1529293 22.5819935,19.4431252 22.2363508,19.4431252 Z" id="Shape" fill="#4C4242" fill-rule="nonzero"></path>
                    </g>
                </g>
            </g>
        </g>
    </g>
</svg>