<?xml version="1.0" encoding="UTF-8"?>
<svg width="40px" height="40px" viewBox="0 0 40 40" version="1.1" xmlns="http://www.w3.org/2000/svg" xmlns:xlink="http://www.w3.org/1999/xlink">
    <defs>
        <rect id="path-1" x="0" y="1" width="270" height="97" rx="7"></rect>
        <filter x="-50%" y="-50%" width="200%" height="200%" filterUnits="objectBoundingBox" id="filter-2">
            <feOffset dx="1" dy="2" in="SourceAlpha" result="shadowOffsetOuter1"></feOffset>
            <feGaussianBlur stdDeviation="4" in="shadowOffsetOuter1" result="shadowBlurOuter1"></feGaussianBlur>
            <feColorMatrix values="0 0 0 0 0.847151361   0 0 0 0 0.847151361   0 0 0 0 0.847151361  0 0 0 0.5 0" type="matrix" in="shadowBlurOuter1"></feColorMatrix>
        </filter>
    </defs>
    <g id="Page-1" stroke="none" stroke-width="1" fill="none" fill-rule="evenodd">
        <rect id="Rectangle-2" fill-opacity="0.629999995" fill="#EFEEED" x="-290" y="-106" width="375" height="782"></rect>
        <g id="iPhone-7" transform="translate(-290.000000, -339.000000)">
            <g id="Group-3" transform="translate(85.000000, 318.000000)">
                <g id="Rectangle-4">
                    <use fill="black" fill-opacity="1" filter="url(#filter-2)" xlink:href="#path-1"></use>
                    <use fill="#FFFFFF" fill-rule="evenodd" xlink:href="#path-1"></use>
                </g>
            </g>
            <g id="smile" transform="translate(290.000000, 339.000000)" fill-rule="nonzero" fill="#717070">
                <g id="Group">
                    <path d="M20,0 C8.97214286,0 0,8.97214286 0,20 C0,31.0278571 8.97214286,40 20,40 C31.0278571,40 40,31.0278571 40,20 C40,8.97214286 31.0278571,0 20,0 Z M20,38.5714286 C9.75928571,38.5714286 1.42857143,30.2407143 1.42857143,20 C1.42857143,9.75928571 9.75928571,1.42857143 20,1.42857143 C30.2407143,1.42857143 38.5714286,9.75928571 38.5714286,20 C38.5714286,30.2407143 30.2407143,38.5714286 20,38.5714286 Z" id="Shape"></path>
                    <path d="M30,21.4285714 L10,21.4285714 C9.605,21.4285714 9.28571429,21.7478571 9.28571429,22.1428571 C9.28571429,25.5242857 10.8642857,28.54 13.3192857,30.5057143 C13.3878571,30.5842857 13.47,30.6528571 13.5728571,30.6964286 L13.5735714,30.6964286 C15.3671429,32.0464286 17.5878571,32.8571429 20,32.8571429 C22.4514286,32.8571429 24.7057143,32.0207143 26.5128571,30.6314286 C26.57,30.5957143 26.6264286,30.5607143 26.6707143,30.5128571 C29.1307143,28.5478571 30.7142857,25.5292857 30.7142857,22.1428571 C30.7142857,21.7478571 30.395,21.4285714 30,21.4285714 Z M29.2585714,22.8571429 C29.2207143,23.3464286 29.1364286,23.8207143 29.0264286,24.2857143 L10.9735714,24.2857143 C10.8635714,23.8207143 10.7792857,23.3464286 10.7414286,22.8571429 L29.2585714,22.8571429 Z M14.7907143,29.8157143 C15.3171429,29.0485714 16.1871429,28.5714286 17.1428571,28.5714286 C18.0507143,28.5714286 18.8842857,28.9885714 19.43,29.7164286 C19.445,29.7371429 19.4685714,29.7471429 19.485,29.7657143 C19.5142857,29.7964286 19.5335714,29.8328571 19.5685714,29.8592857 C19.5828571,29.87 19.6,29.8721429 19.6142857,29.8807143 C19.6507143,29.9042857 19.6892857,29.9192857 19.7292857,29.9357143 C19.7742857,29.9535714 19.8178571,29.9742857 19.8657143,29.9828571 C19.9092857,29.9914286 19.9521429,29.9892857 19.9971429,29.9892857 C20.0428571,29.9892857 20.0878571,29.9914286 20.1328571,29.9821429 C20.1778571,29.9735714 20.2192857,29.955 20.2628571,29.9371429 C20.3064286,29.9192857 20.3471429,29.9042857 20.3864286,29.8785714 C20.4,29.8692857 20.4164286,29.8671429 20.43,29.8578571 C20.4621429,29.8335714 20.48,29.7992857 20.5071429,29.7707143 C20.5264286,29.7507143 20.5514286,29.7392857 20.5685714,29.7164286 C21.1157143,28.9885714 21.9492857,28.5714286 22.8571429,28.5714286 C23.8128571,28.5714286 24.6828571,29.0485714 25.2085714,29.8157143 C23.7214286,30.8292857 21.9314286,31.4285714 20,31.4285714 C18.0685714,31.4285714 16.2785714,30.8285714 14.7907143,29.8157143 Z M26.3278571,28.9321429 C25.5342857,27.8271429 24.2578571,27.1428571 22.8571429,27.1428571 C21.7992857,27.1428571 20.7821429,27.5464286 20.0021429,28.2421429 C19.2235714,27.5392857 18.22,27.1428571 17.1428571,27.1428571 C15.7421429,27.1428571 14.4664286,27.8271429 13.6721429,28.9321429 C12.7135714,28.0385714 11.9528571,26.9407143 11.4385714,25.7142857 L28.5614286,25.7142857 C28.0478571,26.9407143 27.2864286,28.0385714 26.3278571,28.9321429 Z" id="Shape2"></path>
                    <path d="M25,15.7142857 C25,15.3192857 24.6807143,15 24.2857143,15 C23.8907143,15 23.5714286,15.3192857 23.5714286,15.7142857 C23.5714286,16.835 24.5,17.8007143 25.7142857,18.0828571 L25.7142857,18.5714286 C25.7142857,18.9664286 26.0335714,19.2857143 26.4285714,19.2857143 C26.8235714,19.2857143 27.1428571,18.9664286 27.1428571,18.5714286 L27.1428571,18.09 C28.3721429,17.8235714 29.2857143,16.9 29.2857143,15.7935714 C29.2857143,14.4264286 28.1764286,13.7078571 27.1428571,13.1585714 L27.1428571,10.5535714 C27.575,10.7492857 27.8571429,11.1007143 27.8571429,11.4292857 C27.8571429,11.8242857 28.1764286,12.1435714 28.5714286,12.1435714 C28.9664286,12.1435714 29.2857143,11.8242857 29.2857143,11.4292857 C29.2857143,10.3085714 28.3571429,9.34285714 27.1428571,9.06071429 L27.1428571,8.57142857 C27.1428571,8.17642857 26.8235714,7.85714286 26.4285714,7.85714286 C26.0335714,7.85714286 25.7142857,8.17642857 25.7142857,8.57142857 L25.7142857,9.05285714 C24.485,9.31928571 23.5714286,10.2428571 23.5714286,11.3492857 C23.5714286,12.7364286 24.6742857,13.4671429 25.7142857,14.0235714 L25.7142857,16.59 C25.2821429,16.3935714 25,16.0428571 25,15.7142857 Z M27.8571429,15.7935714 C27.8571429,16.1364286 27.565,16.4414286 27.1428571,16.6092857 L27.1428571,14.81 C27.6,15.1128571 27.8571429,15.4078571 27.8571429,15.7935714 Z M25,11.3492857 C25,11.0064286 25.2921429,10.7014286 25.7142857,10.5335714 L25.7142857,12.3657143 C25.2571429,12.0571429 25,11.7528571 25,11.3492857 Z" id="Shape"></path>
                    <path d="M12.1428571,15.7142857 C12.1428571,15.3192857 11.8235714,15 11.4285714,15 C11.0335714,15 10.7142857,15.3192857 10.7142857,15.7142857 C10.7142857,16.835 11.6428571,17.8007143 12.8571429,18.0828571 L12.8571429,18.5714286 C12.8571429,18.9664286 13.1764286,19.2857143 13.5714286,19.2857143 C13.9664286,19.2857143 14.2857143,18.9664286 14.2857143,18.5714286 L14.2857143,18.09 C15.515,17.8235714 16.4285714,16.9 16.4285714,15.7935714 C16.4285714,14.4264286 15.3192857,13.7078571 14.2857143,13.1585714 L14.2857143,10.5535714 C14.7178571,10.7492857 15,11.1007143 15,11.4292857 C15,11.8242857 15.3192857,12.1435714 15.7142857,12.1435714 C16.1092857,12.1435714 16.4285714,11.8242857 16.4285714,11.4292857 C16.4285714,10.3085714 15.5,9.34285714 14.2857143,9.06071429 L14.2857143,8.57142857 C14.2857143,8.17642857 13.9664286,7.85714286 13.5714286,7.85714286 C13.1764286,7.85714286 12.8571429,8.17642857 12.8571429,8.57142857 L12.8571429,9.05285714 C11.6278571,9.31928571 10.7142857,10.2428571 10.7142857,11.3492857 C10.7142857,12.7364286 11.8171429,13.4671429 12.8571429,14.0235714 L12.8571429,16.59 C12.425,16.3935714 12.1428571,16.0428571 12.1428571,15.7142857 Z M15,15.7935714 C15,16.1364286 14.7078571,16.4414286 14.2857143,16.6092857 L14.2857143,14.81 C14.7428571,15.1128571 15,15.4078571 15,15.7935714 Z M12.1428571,11.3492857 C12.1428571,11.0064286 12.435,10.7014286 12.8571429,10.5335714 L12.8571429,12.3657143 C12.4,12.0571429 12.1428571,11.7528571 12.1428571,11.3492857 Z" id="Shape"></path>
                </g>
            </g>
        </g>
    </g>
</svg>
